<svg width="680" height="200" viewBox="0 0 680 200" xmlns="http://www.w3.org/2000/svg">
  <rect width="680" height="200" rx="8" fill="#0d1117"/>

  <!-- left lines -->
  <line x1="40" y1="60" x2="90" y2="100" stroke="#58a6ff" stroke-width="0.5" opacity="0.3"/>
  <line x1="40" y1="60" x2="90" y2="40" stroke="#58a6ff" stroke-width="0.5" opacity="0.3"/>
  <line x1="90" y1="100" x2="130" y2="70" stroke="#58a6ff" stroke-width="0.5" opacity="0.3"/>
  <line x1="90" y1="40" x2="130" y2="70" stroke="#58a6ff" stroke-width="0.5" opacity="0.3"/>
  <line x1="90" y1="40" x2="130" y2="130" stroke="#58a6ff" stroke-width="0.5" opacity="0.2"/>
  <line x1="90" y1="100" x2="130" y2="130" stroke="#58a6ff" stroke-width="0.5" opacity="0.2"/>
  <line x1="40" y1="140" x2="90" y2="100" stroke="#7c3aed" stroke-width="0.5" opacity="0.3"/>
  <line x1="40" y1="140" x2="90" y2="160" stroke="#7c3aed" stroke-width="0.5" opacity="0.3"/>
  <line x1="90" y1="160" x2="130" y2="130" stroke="#7c3aed" stroke-width="0.5" opacity="0.3"/>

  <!-- right lines -->
  <line x1="640" y1="60" x2="590" y2="100" stroke="#f78166" stroke-width="0.5" opacity="0.3"/>
  <line x1="640" y1="60" x2="590" y2="40" stroke="#f78166" stroke-width="0.5" opacity="0.3"/>
  <line x1="590" y1="100" x2="550" y2="70" stroke="#f78166" stroke-width="0.5" opacity="0.3"/>
  <line x1="590" y1="40" x2="550" y2="70" stroke="#f78166" stroke-width="0.5" opacity="0.3"/>
  <line x1="590" y1="40" x2="550" y2="130" stroke="#f78166" stroke-width="0.5" opacity="0.2"/>
  <line x1="590" y1="100" x2="550" y2="130" stroke="#f78166" stroke-width="0.5" opacity="0.2"/>
  <line x1="640" y1="140" x2="590" y2="100" stroke="#7c3aed" stroke-width="0.5" opacity="0.3"/>
  <line x1="640" y1="140" x2="590" y2="160" stroke="#7c3aed" stroke-width="0.5" opacity="0.3"/>
  <line x1="590" y1="160" x2="550" y2="130" stroke="#7c3aed" stroke-width="0.5" opacity="0.3"/>

  <!-- left nodes -->
  <circle cx="40" cy="60" r="3" fill="#58a6ff" opacity="0.6"/>
  <circle cx="40" cy="140" r="3" fill="#7c3aed" opacity="0.6"/>
  <circle cx="90" cy="40" r="3" fill="#58a6ff" opacity="0.5"/>
  <circle cx="90" cy="100" r="4" fill="#58a6ff" opacity="0.7"/>
  <circle cx="90" cy="160" r="3" fill="#7c3aed" opacity="0.5"/>
  <circle cx="130" cy="70" r="3" fill="#58a6ff" opacity="0.4"/>
  <circle cx="130" cy="130" r="3" fill="#7c3aed" opacity="0.4"/>

  <!-- right nodes -->
  <circle cx="640" cy="60" r="3" fill="#f78166" opacity="0.6"/>
  <circle cx="640" cy="140" r="3" fill="#7c3aed" opacity="0.6"/>
  <circle cx="590" cy="40" r="3" fill="#f78166" opacity="0.5"/>
  <circle cx="590" cy="100" r="4" fill="#f78166" opacity="0.7"/>
  <circle cx="590" cy="160" r="3" fill="#7c3aed" opacity="0.5"/>
  <circle cx="550" cy="70" r="3" fill="#f78166" opacity="0.4"/>
  <circle cx="550" cy="130" r="3" fill="#7c3aed" opacity="0.4"/>

  <!-- text -->
  <text x="340" y="92" text-anchor="middle" font-family="'SF Mono','Fira Code',monospace" font-size="34" font-weight="700" fill="#e6edf3" letter-spacing="-1">Mestane</text>
  <text x="340" y="120" text-anchor="middle" font-family="'SF Mono','Fira Code',monospace" font-size="12" fill="#8b949e" letter-spacing="2">BACKEND DEV &amp; LINUX TINKERER</text>
  <text x="340" y="145" text-anchor="middle" font-family="'SF Mono','Fira Code',monospace" font-size="11" fill="#58a6ff" opacity="0.7">istanbul, turkey</text>
</svg>
